<svg width="25" height="25" viewBox="0 0 25 25" fill="none" xmlns="http://www.w3.org/2000/svg">
<path d="M21.17 9.96409C21.03 9.95409 20.85 9.94409 20.65 9.94409C20.26 9.94409 19.95 10.2541 19.95 10.6441V15.2941C19.95 15.6841 20.26 15.9941 20.65 15.9941C20.85 15.9941 21.02 15.9841 21.19 15.9741C22.75 15.7941 22.75 14.6941 22.75 13.8941V12.0341C22.75 11.2341 22.75 10.1341 21.17 9.96409Z" fill="#333333"/>
<path d="M13.68 5.75415H8.1C4 5.75415 2.75 7.00415 2.75 11.1042V14.8242C2.75 18.9242 4 20.1741 8.1 20.1741H13.68C17.78 20.1741 19.03 18.9242 19.03 14.8242V11.1042C19.03 7.00415 17.78 5.75415 13.68 5.75415ZM7.85 15.1442C7.77 15.4842 7.46 15.7142 7.12 15.7142C7.06 15.7142 7 15.7042 6.94 15.6941C6.54 15.5941 6.29 15.1841 6.39 14.7842C6.69 13.5942 6.69 12.3342 6.39 11.1442C6.29 10.7442 6.53 10.3342 6.94 10.2342C7.35 10.1342 7.75 10.3842 7.85 10.7842C8.21 12.2141 8.21 13.7142 7.85 15.1442ZM11.35 15.1442C11.27 15.4842 10.96 15.7142 10.62 15.7142C10.56 15.7142 10.5 15.7042 10.44 15.6941C10.04 15.5941 9.79 15.1841 9.89 14.7842C10.19 13.5942 10.19 12.3342 9.89 11.1442C9.79 10.7442 10.03 10.3342 10.44 10.2342C10.84 10.1342 11.25 10.3742 11.35 10.7842C11.71 12.2141 11.71 13.7142 11.35 15.1442ZM14.85 15.1442C14.77 15.4842 14.46 15.7142 14.12 15.7142C14.06 15.7142 14 15.7042 13.94 15.6941C13.54 15.5941 13.29 15.1841 13.39 14.7842C13.69 13.5942 13.69 12.3342 13.39 11.1442C13.29 10.7442 13.53 10.3342 13.94 10.2342C14.34 10.1342 14.75 10.3742 14.85 10.7842C15.21 12.2141 15.21 13.7142 14.85 15.1442Z" fill="#333333"/>
</svg>
