<svg width="25" height="24" viewBox="0 0 25 24" fill="none" xmlns="http://www.w3.org/2000/svg">
<path d="M21.17 9.00001C21.03 8.99001 20.85 8.98001 20.65 8.98001C20.26 8.98001 19.95 9.29001 19.95 9.68001V14.33C19.95 14.72 20.26 15.03 20.65 15.03C20.85 15.03 21.02 15.02 21.19 15.01C22.75 14.83 22.75 13.73 22.75 12.93V11.07C22.75 10.27 22.75 9.17001 21.17 9.00001Z" fill="#FF8343"/>
<path d="M13.68 4.79001H8.1C4 4.79001 2.75 6.04001 2.75 10.14V13.86C2.75 17.96 4 19.21 8.1 19.21H13.68C17.78 19.21 19.03 17.96 19.03 13.86V10.14C19.03 6.04001 17.78 4.79001 13.68 4.79001ZM7.85 14.18C7.77 14.52 7.46 14.75 7.12 14.75C7.06 14.75 7 14.74 6.94 14.73C6.54 14.63 6.29 14.22 6.39 13.82C6.69 12.63 6.69 11.37 6.39 10.18C6.29 9.78001 6.53 9.37001 6.94 9.27001C7.35 9.17001 7.75 9.42001 7.85 9.82001C8.21 11.25 8.21 12.75 7.85 14.18ZM11.35 14.18C11.27 14.52 10.96 14.75 10.62 14.75C10.56 14.75 10.5 14.74 10.44 14.73C10.04 14.63 9.79 14.22 9.89 13.82C10.19 12.63 10.19 11.37 9.89 10.18C9.79 9.78001 10.03 9.37001 10.44 9.27001C10.84 9.17001 11.25 9.41001 11.35 9.82001C11.71 11.25 11.71 12.75 11.35 14.18ZM14.85 14.18C14.77 14.52 14.46 14.75 14.12 14.75C14.06 14.75 14 14.74 13.94 14.73C13.54 14.63 13.29 14.22 13.39 13.82C13.69 12.63 13.69 11.37 13.39 10.18C13.29 9.78001 13.53 9.37001 13.94 9.27001C14.34 9.17001 14.75 9.41001 14.85 9.82001C15.21 11.25 15.21 12.75 14.85 14.18Z" fill="#FF8343"/>
</svg>
