<svg width="24" height="25" viewBox="0 0 24 25" fill="none" xmlns="http://www.w3.org/2000/svg">
<path d="M9.88003 5.56408C9.08003 2.10408 3.87002 2.09408 3.07002 5.56408C2.60002 7.59408 3.89003 9.31408 5.01003 10.3841C5.83003 11.1541 7.12003 11.1541 7.94003 10.3841C9.06003 9.31408 10.34 7.59408 9.88003 5.56408ZM6.51003 7.16408C5.96003 7.16408 5.51003 6.71408 5.51003 6.16408C5.51003 5.61408 5.95003 5.16408 6.50003 5.16408H6.51003C7.07003 5.16408 7.51003 5.61408 7.51003 6.16408C7.51003 6.71408 7.07003 7.16408 6.51003 7.16408Z" fill="#333333"/>
<path d="M22.91 17.5641C22.11 14.1041 16.88 14.0941 16.07 17.5641C15.6 19.5941 16.89 21.3141 18.02 22.3841C18.84 23.1541 20.14 23.1541 20.96 22.3841C22.09 21.3141 23.38 19.5941 22.91 17.5641ZM19.53 19.1641C18.98 19.1641 18.53 18.7141 18.53 18.1641C18.53 17.6141 18.97 17.1641 19.52 17.1641H19.53C20.08 17.1641 20.53 17.6141 20.53 18.1641C20.53 18.7141 20.08 19.1641 19.53 19.1641Z" fill="#333333"/>
<path d="M12.9999 20.7141H10.3199C9.15994 20.7141 8.14994 20.0141 7.74994 18.9341C7.33994 17.8541 7.63994 16.6641 8.50994 15.8941L16.4999 8.90411C16.9799 8.48411 16.9899 7.91411 16.8499 7.52411C16.6999 7.13411 16.3199 6.71411 15.6799 6.71411H12.9999C12.5899 6.71411 12.2499 6.37411 12.2499 5.96411C12.2499 5.55411 12.5899 5.21411 12.9999 5.21411H15.6799C16.8399 5.21411 17.8499 5.91411 18.2499 6.99411C18.6599 8.07411 18.3599 9.26411 17.4899 10.0341L9.49994 17.0241C9.01994 17.4441 9.00994 18.0141 9.14994 18.4041C9.29994 18.7941 9.67994 19.2141 10.3199 19.2141H12.9999C13.4099 19.2141 13.7499 19.5541 13.7499 19.9641C13.7499 20.3741 13.4099 20.7141 12.9999 20.7141Z" fill="#333333"/>
</svg>
