<svg width="25" height="25" viewBox="0 0 25 25" fill="none" xmlns="http://www.w3.org/2000/svg">
<path fill-rule="evenodd" clip-rule="evenodd" d="M3.5 5.96411C3.5 4.85954 4.39543 3.96411 5.5 3.96411L13.5 3.96411C14.6046 3.96411 15.5 4.85954 15.5 5.96411V12.9641H16.5C17.6046 12.9641 18.5 13.8595 18.5 14.9641V17.4641C18.5 17.7402 18.7239 17.9641 19 17.9641C19.2761 17.9641 19.5 17.7402 19.5 17.4641V11.3783L18.25 10.1283L18.2071 10.1712C17.8166 10.5617 17.1834 10.5617 16.7929 10.1712C16.4024 9.78069 16.4024 9.14753 16.7929 8.757L16.8358 8.71411L16.7929 8.67122C16.4024 8.28069 16.4024 7.64753 16.7929 7.257C17.1834 6.86648 17.8166 6.86648 18.2071 7.257L20.9142 9.96411C21.2893 10.3392 21.5 10.8479 21.5 11.3783V17.4641C21.5 18.8448 20.3807 19.9641 19 19.9641C17.6193 19.9641 16.5 18.8448 16.5 17.4641V14.9641H15.5V19.9641C16.0523 19.9641 16.5 20.4118 16.5 20.9641C16.5 21.5164 16.0523 21.9641 15.5 21.9641H3.5C2.94772 21.9641 2.5 21.5164 2.5 20.9641C2.5 20.4118 2.94772 19.9641 3.5 19.9641L3.5 5.96411ZM10.3944 9.41132C10.6414 8.91735 10.4412 8.31667 9.94721 8.06968C9.45324 7.82269 8.85256 8.02292 8.60557 8.5169L6.61281 12.5024C6.27704 13.1739 6.76534 13.9641 7.51618 13.9641H9.88197L8.60557 16.5169C8.35858 17.0109 8.55881 17.6115 9.05279 17.8585C9.54676 18.1055 10.1474 17.9053 10.3944 17.4113L12.3872 13.4258C12.723 12.7542 12.2346 11.9641 11.4838 11.9641H9.11803L10.3944 9.41132Z" fill="#333333"/>
</svg>
