<svg width="24" height="25" viewBox="0 0 24 25" fill="none" xmlns="http://www.w3.org/2000/svg">
<path fill-rule="evenodd" clip-rule="evenodd" d="M12 3.96411C12.5523 3.96411 13 4.41183 13 4.96411C13 5.51639 12.5523 5.96411 12 5.96411H11V6.96411H13.7639C14.0744 6.96411 14.3806 7.0364 14.6584 7.17526L17.8944 8.79329C18.572 9.13207 19 9.8246 19 10.5821V12.9641L20 12.9641V11.9641C20 11.4118 20.4477 10.9641 21 10.9641C21.5523 10.9641 22 11.4118 22 11.9641V15.9641C22 16.5164 21.5523 16.9641 21 16.9641C20.4477 16.9641 20 16.5164 20 15.9641V14.9641L19 14.9641V16.4641C19 17.0936 18.7036 17.6864 18.2 18.0641L14.8667 20.5641C14.5205 20.8237 14.0994 20.9641 13.6667 20.9641H5C3.89543 20.9641 3 20.0687 3 18.9641L3 8.96411C3 7.85954 3.89543 6.96411 5 6.96411H9V5.96411H8C7.44772 5.96411 7 5.51639 7 4.96411C7 4.41183 7.44772 3.96411 8 3.96411H12ZM11.0145 10.6066C10.5747 10.3428 10.0137 10.4563 9.70828 10.8531L9.64251 10.9496L8.15159 13.4345C7.76788 14.0741 8.18633 14.8789 8.90223 14.9578L9.01766 14.9641H10.2338L9.64251 15.9496C9.35836 16.4232 9.51192 17.0374 9.9855 17.3216C10.4253 17.5854 10.9863 17.4719 11.2917 17.0752L11.3575 16.9786L12.8484 14.4937C13.2321 13.8543 12.8137 13.0493 12.0977 12.9704L11.9823 12.9641H10.7662L11.3575 11.9786C11.6416 11.505 11.4881 10.8908 11.0145 10.6066Z" fill="#333333"/>
</svg>
