<svg width="24" height="24" viewBox="0 0 24 24" fill="none" xmlns="http://www.w3.org/2000/svg">
<path d="M18.3273 7.15594C18.3529 7.17716 18.3785 7.19838 18.4049 7.22025C18.9054 7.63597 19.3514 8.07453 19.7566 8.58526C19.785 8.61943 19.8135 8.6536 19.8427 8.68881C21.5169 10.7152 22.1941 13.392 21.9526 15.9796C21.9249 16.2455 21.8854 16.5083 21.8384 16.7714C21.8315 16.8099 21.8247 16.8484 21.8177 16.8881C21.7525 17.23 21.6757 17.6052 21.3749 17.8177C21.1228 17.9709 20.9117 17.9896 20.6218 17.9899C20.5916 17.99 20.5613 17.99 20.5301 17.9901C20.4285 17.9904 20.3268 17.9903 20.2252 17.9903C20.1517 17.9904 20.0782 17.9905 20.0046 17.9907C19.8024 17.991 19.6002 17.9911 19.398 17.9911C19.18 17.9912 18.962 17.9915 18.7439 17.9918C18.2671 17.9924 17.7903 17.9927 17.3135 17.9929C17.0159 17.993 16.7182 17.9932 16.4205 17.9933C15.5965 17.9939 14.7724 17.9943 13.9484 17.9945C13.8957 17.9945 13.8429 17.9945 13.7886 17.9945C13.7357 17.9945 13.6828 17.9945 13.6284 17.9945C13.5212 17.9945 13.4141 17.9946 13.307 17.9946C13.2538 17.9946 13.2007 17.9946 13.1459 17.9946C12.2847 17.9948 11.4234 17.9955 10.5621 17.9965C9.67805 17.9976 8.79396 17.9981 7.90987 17.9982C7.41343 17.9982 6.91698 17.9985 6.42053 17.9992C5.99783 17.9999 5.57514 18.0001 5.15244 17.9998C4.93677 17.9996 4.72111 17.9996 4.50544 18.0003C4.30794 18.0008 4.11045 18.0008 3.91296 18.0002C3.84157 18.0001 3.77019 18.0003 3.69881 18.0007C3.29002 18.0027 2.92927 18.0023 2.56949 17.7784C2.3449 17.5474 2.26772 17.2961 2.20945 16.988C2.20229 16.9519 2.19513 16.9158 2.18774 16.8785C1.69743 14.3467 2.16747 11.6253 3.59818 9.46235C4.18411 8.59826 4.86055 7.80597 5.67991 7.15594C5.73116 7.11331 5.73116 7.11331 5.78345 7.06982C9.04337 4.3766 13.9195 4.21523 18.3273 7.15594ZM5.76653 9.58146C5.60837 9.75924 5.46724 9.94795 5.3334 10.1445C5.31317 10.1741 5.29294 10.2036 5.27209 10.2341C4.34173 11.6098 3.68065 13.3517 3.81745 15.0389C3.88275 15.2746 3.99992 15.4257 4.20726 15.5587C4.41479 15.6278 4.61923 15.6468 4.82498 15.5612C5.02713 15.442 5.15788 15.3213 5.22693 15.0904C5.25013 14.9796 5.25757 14.8728 5.26386 14.7597C5.2992 14.1885 5.34893 13.6411 5.50665 13.0898C5.51581 13.0577 5.52497 13.0256 5.5344 12.9925C5.67679 12.5067 5.87117 12.0611 6.11304 11.6172C6.13755 11.5713 6.16206 11.5255 6.18731 11.4783C7.00093 10.0176 8.42271 8.94158 10.0112 8.45533C11.3793 8.07399 12.8075 8.06837 14.1599 8.51608C14.412 8.59808 14.6182 8.64688 14.8699 8.54838C15.0639 8.44408 15.1849 8.31986 15.2712 8.11661C15.3303 7.88607 15.2851 7.69729 15.179 7.48891C14.9704 7.2465 14.7244 7.15516 14.4264 7.06931C14.3889 7.0583 14.3514 7.04729 14.3127 7.03595C11.134 6.13258 7.9754 7.20392 5.76653 9.58146ZM16.4281 9.48322C16.3905 9.52133 16.3528 9.55945 16.3141 9.59872C16.2326 9.68125 16.1512 9.76386 16.0699 9.84659C15.9413 9.97737 15.8123 10.1077 15.6832 10.2379C15.3162 10.6082 14.9495 10.9788 14.584 11.3505C14.3818 11.5561 14.1791 11.7611 13.9758 11.9656C13.8683 12.0737 13.7611 12.1821 13.6546 12.2911C13.536 12.4126 13.4163 12.5328 13.2964 12.653C13.2613 12.6893 13.2262 12.7257 13.19 12.7631C12.9485 13.0024 12.9485 13.0024 12.7688 13.0063C12.7116 12.9833 12.7116 12.9833 12.6533 12.9599C12.1378 12.8034 11.6335 12.8353 11.1373 13.0465C10.9974 13.1223 10.8728 13.2085 10.7475 13.3064C10.7209 13.3254 10.6944 13.3445 10.667 13.3641C10.2605 13.6761 10.0535 14.156 9.96789 14.6491C9.91317 15.259 10.1042 15.7935 10.4831 16.2677C10.8463 16.6673 11.3534 16.9057 11.8887 16.9538C12.4783 16.9781 13.0133 16.7559 13.4438 16.3599C13.8558 15.9256 14.0587 15.3784 14.0512 14.7834C14.0356 14.6066 13.9905 14.4474 13.9336 14.2797C13.9047 14.152 13.9161 14.0816 13.9527 13.9561C14.0193 13.8684 14.0193 13.8684 14.1069 13.7816C14.14 13.7484 14.1731 13.7151 14.2072 13.6809C14.2438 13.6451 14.2804 13.6093 14.318 13.5724C14.3564 13.5342 14.3947 13.496 14.4341 13.4567C14.5174 13.3738 14.6008 13.291 14.6846 13.2085C14.8169 13.0781 14.9487 12.947 15.0804 12.8159C15.2887 12.6085 15.4974 12.4016 15.7064 12.1948C16.0805 11.8245 16.4542 11.4537 16.8274 11.0825C16.9584 10.9522 17.0896 10.8222 17.221 10.6924C17.3219 10.5926 17.4225 10.4926 17.5232 10.3926C17.5597 10.3567 17.5962 10.3209 17.6337 10.2839C17.667 10.2508 17.7002 10.2177 17.7344 10.1836C17.7778 10.1407 17.7778 10.1407 17.8221 10.0969C17.9829 9.91339 18.0001 9.75547 17.9942 9.51802C17.9722 9.33761 17.9203 9.24954 17.8075 9.10502C17.5996 8.94285 17.4415 8.91214 17.1807 8.90876C16.8666 8.97477 16.6427 9.26387 16.4281 9.48322Z" fill="#FF8343"/>
</svg>
