<svg width="124" height="124" viewBox="0 0 124 124" fill="none" xmlns="http://www.w3.org/2000/svg">
<g clip-path="url(#clip0_267_499)">
<path d="M60.276 108.607C61.5608 107.513 62.8456 106.419 64.1304 105.324C64.0829 105.118 64.0353 104.912 63.9877 104.706C63.258 104.801 62.4332 104.69 61.8463 105.007C60.5773 105.705 59.4828 106.736 58.198 107.402C57.4842 107.782 56.5325 107.751 55.6918 107.893L55.5015 107.307C56.818 106.165 58.1346 105.023 59.4353 103.866C59.3877 103.675 59.3401 103.469 59.2766 103.279C58.5946 103.342 57.8015 103.215 57.2304 103.517C55.8822 104.214 54.6608 105.15 53.3284 105.879C52.7573 106.197 52.0435 106.292 51.3932 106.482L51.0918 105.911C52.3608 104.817 53.6297 103.723 54.8987 102.629L54.5656 101.883C53.8835 101.979 53.0904 101.915 52.5194 102.216C51.187 102.93 49.9815 103.913 48.649 104.627C48.0304 104.96 47.2373 104.96 46.5235 105.118C46.4442 104.928 46.3808 104.738 46.3014 104.563C47.6973 103.422 49.109 102.296 50.489 101.122C53.6932 98.4265 56.9766 95.8101 60.038 92.9716C62.5284 90.6564 64.2573 87.8021 64.4477 84.2184C61.196 91.9884 53.8994 95.4136 47.9035 100.203C47.6814 100.06 47.4435 99.933 47.2214 99.7902C47.8559 98.2045 48.538 96.6505 49.1408 95.0489C49.5532 93.9548 50.1718 92.813 50.1559 91.6872C50.0766 87.0092 49.7594 82.3313 49.5849 77.6534C49.5532 76.9874 49.7435 76.2897 49.9656 75.6554C50.3304 74.6564 50.838 73.7208 51.0601 73.2451C50.2511 72.4839 49.4897 72.0717 49.2042 71.4532C47.6973 68.1073 46.3014 64.698 44.858 61.3045C44.6201 60.7495 44.3345 60.2104 43.7001 59.7664C43.8111 61.2252 44.0332 62.7 44.0173 64.1588C44.0173 65.1896 43.9063 66.3472 43.4463 67.2193C38.1166 77.0984 32.7076 86.9458 27.2511 96.7456C26.8704 97.4275 25.8711 98.1728 25.1573 98.1887C17.0993 98.2838 9.0414 98.2521 0.983457 98.2521C0.745525 98.2521 0.507594 98.1569 0.0158691 98.0301C0.444146 97.3324 0.761387 96.7456 1.14208 96.1906C4.34622 91.3859 7.61381 86.6287 10.7386 81.7763C11.278 80.9359 11.5 79.6514 11.3731 78.6366C11.0083 75.8774 10.3262 73.1658 9.8345 70.4225C9.46967 68.4086 11.389 65.1896 13.229 64.2857C14.0855 63.8734 14.9421 63.2233 15.4814 62.4463C18.2097 58.6246 20.7476 54.6762 23.5393 50.9021C28.8849 43.6236 34.3573 36.4244 39.7663 29.1776C40.4007 28.3213 40.9083 27.354 41.5111 26.466C43.4939 23.5641 47.4594 23.5483 49.3152 26.466C51.9166 30.5572 54.6608 34.4739 58.7691 37.2648C59.4511 37.7247 60.1332 38.7554 60.1491 39.5483C60.2442 46.3194 62.9408 52.361 65.1298 58.5771C66.2401 61.701 66.9222 64.9517 67.9056 68.1232C68.096 68.7416 68.7304 69.5821 69.2698 69.6772C71.9504 70.1529 72.9022 72.0717 73.378 74.3392C73.6636 75.7188 74.2187 76.6068 75.5987 77.0508C77.6132 77.701 78.898 79.1282 79.4691 81.1579C79.9291 82.8071 80.5318 84.4245 80.8174 86.1054C81.547 90.4344 80.738 94.4622 77.2801 97.3799C72.5373 101.376 67.5884 105.118 62.6553 108.892C62.1477 109.289 61.2118 109.13 60.4822 109.225C60.4187 109.003 60.3553 108.781 60.3077 108.575L60.276 108.607ZM17.7814 67.029C19.1297 67.9646 20.018 68.1073 20.8904 66.7912C26.8069 57.8635 32.8504 49.0151 38.6876 40.0399C39.8614 38.2321 40.3214 35.9804 41.1145 33.9348C40.8766 33.7921 40.6228 33.6494 40.3849 33.5066C40.2897 33.7445 40.2263 33.9982 40.0835 34.2202C36.4511 40.1192 31.518 45.1301 28.6469 51.5681C27.5366 54.0577 25.4745 56.135 23.8566 58.4026C21.8421 61.2411 19.8593 64.0796 17.7814 67.029ZM62.5601 71.6752C65.2249 70.3749 65.3201 70.3432 64.2891 67.9646C63.2263 65.5226 61.8463 63.2233 60.8153 60.7654C59.2766 57.0865 57.9442 53.3442 56.5166 49.6177C56.2311 48.8882 55.9139 48.1747 55.5966 47.4452C55.3428 47.4452 55.0732 47.4611 54.8194 47.4769C54.7242 48.3967 54.4228 49.364 54.5815 50.2361C54.8194 51.4571 55.4063 52.6147 55.8504 53.804C58.0711 59.7188 60.2759 65.6177 62.5442 71.6752H62.5601ZM47.4911 30.1132C47.4911 29.8278 47.507 29.5423 47.5228 29.2569C46.8249 28.7019 46.127 27.7346 45.4132 27.7187C44.7945 27.7187 43.6208 28.8129 43.6525 29.352C43.7001 30.1132 44.5566 31.2232 45.2546 31.4135C45.8414 31.5721 46.7297 30.5889 47.4752 30.1132H47.4911Z" fill="url(#paint0_linear_267_499)"/>
<path d="M118.805 98.3948H118.807V98.4107C118.806 98.4054 118.806 98.4001 118.805 98.3948H110.416C106.863 98.3948 103.31 98.2521 99.7566 98.4582C97.7897 98.5692 97.3139 97.7764 97.0442 96.0638C95.569 86.9934 93.9828 77.9388 92.4283 68.8843C92.3808 68.6306 92.3173 68.3927 92.1587 67.6792C88.7007 72.2144 85.449 76.4958 81.9594 81.0786C80.9918 77.812 79.1676 75.7822 76.3759 74.5771C75.9159 74.3868 75.6304 73.6098 75.44 73.0389C74.6152 70.5176 73.3938 68.4562 70.6814 67.5206C69.1428 66.9973 70.0469 66.03 70.6021 65.2847C75.3131 58.9101 80.0242 52.5354 84.7669 46.1766C86.3532 44.0359 88.0028 41.9427 89.6207 39.8337C89.6207 39.8337 91.981 36.5988 99.9628 36.5988C105.61 36.6464 108.909 39.1836 109.94 44.7971C111.785 54.8144 113.46 64.8626 115.133 74.8961L115.206 75.3382C116.333 82.0935 117.364 88.8645 118.442 95.6198C118.568 96.4248 118.663 97.2299 118.805 98.3948Z" fill="url(#paint1_linear_267_499)"/>
</g>
<g clip-path="url(#clip1_267_499)">
<path fill-rule="evenodd" clip-rule="evenodd" d="M116.039 32.9132C113.21 26.2486 105.514 23.1394 98.8499 25.9684C97.6886 26.4613 96.3221 25.9092 95.7932 24.7334C95.3003 23.5721 95.8524 22.2057 97.0282 21.6768C106.066 17.8405 116.494 22.0539 120.295 31.077C120.788 32.2383 120.235 33.6048 119.06 34.1336C117.934 34.6411 116.568 34.089 116.039 32.9132ZM109.273 35.785C108.03 32.8566 104.686 31.5055 101.758 32.7485C100.596 33.2414 99.2299 32.6893 98.701 31.5135C98.2081 30.3523 98.7602 28.9858 99.936 28.4569C105.187 26.228 111.3 28.6979 113.529 33.9488C114.022 35.1101 113.47 36.4766 112.294 37.0055C111.118 37.5344 109.752 36.9823 109.273 35.785Z" fill="url(#paint2_linear_267_499)"/>
</g>
<defs>
<linearGradient id="paint0_linear_267_499" x1="40.5398" y1="24.2836" x2="40.5398" y2="135.727" gradientUnits="userSpaceOnUse">
<stop stop-color="#004A9C"/>
<stop offset="1" stop-color="#000008"/>
</linearGradient>
<linearGradient id="paint1_linear_267_499" x1="94.3177" y1="36.5988" x2="94.3177" y2="117.772" gradientUnits="userSpaceOnUse">
<stop stop-color="#004A9C"/>
<stop offset="1" stop-color="#000008"/>
</linearGradient>
<linearGradient id="paint2_linear_267_499" x1="110.612" y1="21.5492" x2="103.535" y2="39.0648" gradientUnits="userSpaceOnUse">
<stop stop-color="#004A9C"/>
<stop offset="1" stop-color="#000008"/>
</linearGradient>
<clipPath id="clip0_267_499">
<rect width="118.807" height="84.9001" fill="white" transform="translate(0 24.3569)"/>
</clipPath>
<clipPath id="clip1_267_499">
<rect width="26.4899" height="26.4899" fill="white" transform="translate(99.439 13.95) rotate(22)"/>
</clipPath>
</defs>
</svg>
