<svg width="25" height="25" viewBox="0 0 25 25" fill="none" xmlns="http://www.w3.org/2000/svg">
<g id="vuesax/bold/routing">
<path id="Vector" d="M9.38003 5.09997C8.58003 1.63997 3.37002 1.62997 2.57002 5.09997C2.10002 7.12997 3.39003 8.84997 4.51003 9.91997C5.33003 10.69 6.62003 10.69 7.44003 9.91997C8.56003 8.84997 9.84003 7.12997 9.38003 5.09997ZM6.01003 6.69997C5.46003 6.69997 5.01003 6.24997 5.01003 5.69997C5.01003 5.14997 5.45003 4.69997 6.00003 4.69997H6.01003C6.57003 4.69997 7.01003 5.14997 7.01003 5.69997C7.01003 6.24997 6.57003 6.69997 6.01003 6.69997Z" fill="#FF8343"/>
<path id="Vector_2" d="M22.41 17.1C21.61 13.64 16.38 13.63 15.57 17.1C15.1 19.13 16.39 20.85 17.52 21.92C18.34 22.69 19.64 22.69 20.46 21.92C21.59 20.85 22.88 19.13 22.41 17.1ZM19.03 18.7C18.48 18.7 18.03 18.25 18.03 17.7C18.03 17.15 18.47 16.7 19.02 16.7H19.03C19.58 16.7 20.03 17.15 20.03 17.7C20.03 18.25 19.58 18.7 19.03 18.7Z" fill="#FF8343"/>
<path id="Vector_3" d="M12.4999 20.25H9.81994C8.65994 20.25 7.64994 19.55 7.24994 18.47C6.83994 17.39 7.13994 16.2 8.00994 15.43L15.9999 8.44C16.4799 8.02 16.4899 7.45 16.3499 7.06C16.1999 6.67 15.8199 6.25 15.1799 6.25H12.4999C12.0899 6.25 11.7499 5.91 11.7499 5.5C11.7499 5.09 12.0899 4.75 12.4999 4.75H15.1799C16.3399 4.75 17.3499 5.45 17.7499 6.53C18.1599 7.61 17.8599 8.8 16.9899 9.57L8.99994 16.56C8.51994 16.98 8.50994 17.55 8.64994 17.94C8.79994 18.33 9.17994 18.75 9.81994 18.75H12.4999C12.9099 18.75 13.2499 19.09 13.2499 19.5C13.2499 19.91 12.9099 20.25 12.4999 20.25Z" fill="#FF8343"/>
</g>
</svg>
